<svg id="icon-budget-billing" class="icon icon-budget-billing" data-name="icon-budget-billing" xmlns="http://www.w3.org/2000/svg" viewBox="0 0 30 19">
  <path class="icon-path piggy-bank" d="M30,9.48a11.51,11.51,0,0,0-.3-2.68C29.44,6.17,28.56,6,26.1,6a5.64,5.64,0,0,0-2.16-2.66A7.24,7.24,0,0,1,24.58,1a.58.58,0,0,0-.7-.81,10.36,10.36,0,0,0-3.14,1.6l-.2-.07h0C17.28.74,11,.68,8,2c-1.55.72-3,2.76-3.63,5.1A5.09,5.09,0,0,1,3.71,7,3.27,3.27,0,0,0,4,4.9C3.75,4,3.19,3.4,2.49,3.38a1.74,1.74,0,0,0-1.57.88A2.36,2.36,0,0,0,.87,6.55.44.44,0,0,0,1,6.66a4.67,4.67,0,0,0,.75.66,3.53,3.53,0,0,1-1.18.37A.59.59,0,0,0,.59,8.86H.66a4.62,4.62,0,0,0,1.9-.68A2.63,2.63,0,0,0,2.89,8a5.3,5.3,0,0,0,1.25.3,7,7,0,0,0,1.48,5.88,13.05,13.05,0,0,0,.28,3.57.59.59,0,0,0,.33.41,6.8,6.8,0,0,0,2.79.6,7.71,7.71,0,0,0,1.35-.13l.07,0c.5-.17.82-.68,1-1.51a9.37,9.37,0,0,0,6.7.06,6.59,6.59,0,0,0,.38,1.05.59.59,0,0,0,.35.31,7.13,7.13,0,0,0,2.23.36A7.33,7.33,0,0,0,23,18.6l.12-.05a1.71,1.71,0,0,0,.76-1.1,6.53,6.53,0,0,0,.22-1.89,20.37,20.37,0,0,0,5.36-3.15C29.61,12.26,30.06,11.9,30,9.48ZM2.63,6.54a4.12,4.12,0,0,1-.76-.62,1.15,1.15,0,0,1,.06-1,.59.59,0,0,1,.53-.32c.06,0,.25.18.35.61A2,2,0,0,1,2.63,6.54Zm26,5a19.6,19.6,0,0,1-5.42,3.1.6.6,0,0,0-.35.35.65.65,0,0,0,0,.39,4.19,4.19,0,0,1-.32,2.13,5.86,5.86,0,0,1-3.11,0,4.9,4.9,0,0,1-.35-2.1.59.59,0,1,0-1.17-.07,4.7,4.7,0,0,0,0,.65,8.2,8.2,0,0,1-6.48-.12,4,4,0,0,0-.07-.65.6.6,0,0,0-.72-.42.58.58,0,0,0-.42.72,4.11,4.11,0,0,1-.18,2A5.61,5.61,0,0,1,7,17.18a12,12,0,0,1,.06-4.84.59.59,0,1,0-1.15-.25c0,.11-.05.22-.07.32A6.73,6.73,0,0,1,5.39,8c.45-2.22,1.77-4.28,3.12-4.9C11,2,16.55,1.93,19.69,2.69a10.24,10.24,0,0,0-.76.85.6.6,0,0,0,.09.83.59.59,0,0,0,.83-.1,8.92,8.92,0,0,1,3.2-2.52,8,8,0,0,0-.31,1.9.58.58,0,0,0,.3.53,4.48,4.48,0,0,1,2.08,2.61.6.6,0,0,0,.56.41h.25a10.12,10.12,0,0,1,2.7.14A12.23,12.23,0,0,1,28.65,11.52Z"/><path class="cls-1" d="M21.45,6.16H20a.59.59,0,1,0,0,1.17h1.47a.59.59,0,1,0,0-1.17Z"/>
  <path class="icon-path dollar-sign" d="M15.14,9,15,8.94l-.16,0c-.52-.19-1.61-.57-1.61-1.11,0-.7.63-1.17,1.57-1.17h.06a1.42,1.42,0,0,1,1.51,1,.59.59,0,1,0,1.13-.31,2.57,2.57,0,0,0-2.11-1.88V5A.59.59,0,1,0,14.2,5v.51A2.37,2.37,0,0,0,12,7.78c0,1.37,1.56,1.92,2.4,2.22l.15.05.16.06c.57.2,1.62.57,1.62,1.12,0,.85-.82,1.15-1.58,1.15h0a1.4,1.4,0,0,1-1.5-1,.59.59,0,1,0-1.13.31,2.56,2.56,0,0,0,2.1,1.88V14a.59.59,0,1,0,1.17,0v-.44a2.32,2.32,0,0,0,2.16-2.28C17.53,9.85,16,9.29,15.14,9Z"/>
</svg>
